<svg id="visual" viewBox="0 0 900 600" width="900" height="600" xmlns="http://www.w3.org/2000/svg" xmlns:xlink="http://www.w3.org/1999/xlink" version="1.1"><rect x="0" y="0" width="900" height="600" fill="#000000"></rect><path d="M0 491L16.7 498.7C33.3 506.3 66.7 521.7 100 515C133.3 508.3 166.7 479.7 200 464.2C233.3 448.7 266.7 446.3 300 457.5C333.3 468.7 366.7 493.3 400 501.5C433.3 509.7 466.7 501.3 500 501.7C533.3 502 566.7 511 600 513.2C633.3 515.3 666.7 510.7 700 497.3C733.3 484 766.7 462 800 465.3C833.3 468.7 866.7 497.3 883.3 511.7L900 526L900 601L883.3 601C866.7 601 833.3 601 800 601C766.7 601 733.3 601 700 601C666.7 601 633.3 601 600 601C566.7 601 533.3 601 500 601C466.7 601 433.3 601 400 601C366.7 601 333.3 601 300 601C266.7 601 233.3 601 200 601C166.7 601 133.3 601 100 601C66.7 601 33.3 601 16.7 601L0 601Z" fill="#ffffff" stroke-linecap="round" stroke-linejoin="miter"></path></svg>